HIERARCHY
ROOT Hips
{
	OFFSET 0.000000 0.000000 0.000000
	CHANNELS 6 Xposition Yposition Zposition Zrotation Yrotation Xrotation 
	JOINT LHipJoint
	{
		OFFSET 0.000000 0.000000 0.000000
		CHANNELS 3 Zrotation Yrotation Xrotation
		JOINT LeftUpLeg
		{
			OFFSET 1.363060 -1.794630 0.839290
			CHANNELS 3 Zrotation Yrotation Xrotation
			JOINT LeftLeg
			{
				OFFSET 2.448110 -6.726130 0.000000
				CHANNELS 3 Zrotation Yrotation Xrotation
				JOINT LeftFoot
				{
					OFFSET 2.562200 -7.039590 0.000000
					CHANNELS 3 Zrotation Yrotation Xrotation
					JOINT LeftToeBase
					{
						OFFSET 0.157640 -0.433110 2.322550
						CHANNELS 3 Zrotation Yrotation Xrotation
						End Site
						{
							OFFSET 0.000000 0.000000 0.000000
						}
					}
				}
			}
		}
	}
	JOINT RHipJoint
	{
		OFFSET 0.000000 0.000000 0.000000
		CHANNELS 3 Zrotation Yrotation Xrotation
		JOINT RightUpLeg
		{
			OFFSET -1.305520 -1.794630 0.839290
			CHANNELS 3 Zrotation Yrotation Xrotation
			JOINT RightLeg
			{
				OFFSET -2.542530 -6.985550 0.000000
				CHANNELS 3 Zrotation Yrotation Xrotation
				JOINT RightFoot
				{
					OFFSET -2.568260 -7.056230 0.000000
					CHANNELS 3 Zrotation Yrotation Xrotation
					JOINT RightToeBase
					{
						OFFSET -0.164730 -0.452590 2.363150
						CHANNELS 3 Zrotation Yrotation Xrotation
						End Site
						{
							OFFSET 0.000000 0.000000 0.000000
						}
					}
				}
			}
		}
	}
	JOINT LowerBack
	{
		OFFSET 0.000000 0.000000 0.000000
		CHANNELS 3 Zrotation Yrotation Xrotation
		JOINT Spine
		{
			OFFSET 0.028270 2.035590 -0.193380
			CHANNELS 3 Zrotation Yrotation Xrotation
			JOINT Spine1
			{
				OFFSET 0.056720 2.048850 -0.042750
				CHANNELS 3 Zrotation Yrotation Xrotation
				JOINT Neck
				{
					OFFSET 0.000000 0.000000 0.000000
					CHANNELS 3 Zrotation Yrotation Xrotation
					JOINT Neck1
					{
						OFFSET -0.054170 1.746240 0.172020
						CHANNELS 3 Zrotation Yrotation Xrotation
						JOINT Head
						{
							OFFSET 0.104070 1.761360 -0.123970
							CHANNELS 3 Zrotation Yrotation Xrotation
							End Site
							{
								OFFSET 0.000000 0.000000 0.000000
							}
						}
					}
				}
				JOINT LeftShoulder
				{
					OFFSET 0.000000 0.000000 0.000000
					CHANNELS 3 Zrotation Yrotation Xrotation
					JOINT LeftArm
					{
						OFFSET 3.362410 1.200890 -0.311210
						CHANNELS 3 Zrotation Yrotation Xrotation
						JOINT LeftForeArm
						{
							OFFSET 4.983000 -0.000000 -0.000000
							CHANNELS 3 Zrotation Yrotation Xrotation
							JOINT LeftHand
							{
								OFFSET 3.483560 -0.000000 -0.000000
								CHANNELS 3 Zrotation Yrotation Xrotation
								JOINT LeftFingerBase
								{
									OFFSET 0.000000 0.000000 0.000000
									CHANNELS 3 Zrotation Yrotation Xrotation
									JOINT LeftHandIndex1
									{
										OFFSET 0.715260 -0.000000 -0.000000
										CHANNELS 3 Zrotation Yrotation Xrotation
										End Site
										{
											OFFSET 0.000000 0.000000 0.000000
										}
									}
								}
								JOINT LThumb
								{
									OFFSET 0.000000 0.000000 0.000000
									CHANNELS 3 Zrotation Yrotation Xrotation
									End Site
									{
										OFFSET 0.000000 0.000000 0.000000
									}
								}
							}
						}
					}
				}
				JOINT RightShoulder
				{
					OFFSET 0.000000 0.000000 0.000000
					CHANNELS 3 Zrotation Yrotation Xrotation
					JOINT RightArm
					{
						OFFSET -3.136600 1.374050 -0.404650
						CHANNELS 3 Zrotation Yrotation Xrotation
						JOINT RightForeArm
						{
							OFFSET -5.241900 -0.000000 -0.000000
							CHANNELS 3 Zrotation Yrotation Xrotation
							JOINT RightHand
							{
								OFFSET -3.444170 -0.000000 -0.000000
								CHANNELS 3 Zrotation Yrotation Xrotation
								JOINT RightFingerBase
								{
									OFFSET 0.000000 0.000000 0.000000
									CHANNELS 3 Zrotation Yrotation Xrotation
									JOINT RightHandIndex1
									{
										OFFSET -0.622530 -0.000000 -0.000000
										CHANNELS 3 Zrotation Yrotation Xrotation
										End Site
										{
											OFFSET 0.000000 0.000000 0.000000
										}
									}
								}
								JOINT RThumb
								{
									OFFSET 0.000000 0.000000 0.000000
									CHANNELS 3 Zrotation Yrotation Xrotation
									End Site
									{
										OFFSET 0.000000 0.000000 0.000000
									}
								}
							}
						}
					}
				}
			}
		}
	}
}
MOTION
Frames: 5
Frame Time: 0.008333
10.563506 16.390215 2.762648 124.678992 -84.633192 -116.181767 -11.920349 5.711634 2.462161 -5.348591 5.361581 5.553298 -1.103603 1.300542 24.563416 0.505540 2.590981 1.585406 0.357400 0.000000 -89.754900 8.639566 -0.677842 4.898246 4.843284 0.116934 -43.567257 1.445002 -0.941070 19.797177 -0.803134 -5.873555 11.887071 -3.020200 0.000000 -62.228300 3.767305 -7.794831 -9.439093 0.895608 -8.262368 -4.112418 -5.055012 -8.268558 2.243119 9.203052 -21.320649 -12.206191 -1.805677 -0.064418 -1.149808 0.000000 0.000000 0.000000 11.417264 5.856504 -0.697431 -11.485540 -44.307147 7.493729 177.790487 -67.604788 -179.942827 -3.679984 4.943786 -0.161701 0.386316 0.513717 0.000000 0.000000 0.000000 0.000000 0.000000 0.000000 0.000000 11.383822 -22.193639 2.300027 44.013296 -18.713490 -28.603348 3.210532 33.358580 0.003767 -1.955358 1.864016 -0.034811 0.147711 -0.059075 -0.000000 0.000000 0.000000 0.000000 0.000000 0.000000 0.000000 
10.411923 16.398802 2.721887 130.054600 -84.794915 -121.805523 -12.221504 5.874144 2.345317 -4.192210 6.443503 4.558973 -0.925897 1.514661 26.893944 0.497176 1.983367 3.536650 0.302400 0.000000 -90.825300 8.491509 -0.691730 4.762768 5.613991 0.317813 -43.314390 1.394576 -1.049862 21.371276 -0.822104 -5.939593 11.390778 -2.977700 -0.000000 -61.750400 4.328421 -7.688808 -9.244944 0.947879 -8.205013 -4.080742 -5.378691 -8.199568 2.232410 9.424982 -21.110676 -12.286096 -2.013554 -0.082020 -1.176316 0.000000 0.000000 0.000000 10.842610 5.507949 -0.482305 -13.631913 -42.742058 9.503261 178.005791 -67.051487 -179.943902 -3.797908 4.826944 -0.161415 0.370288 0.511120 0.000000 0.000000 0.000000 0.000000 0.000000 0.000000 0.000000 12.181014 -21.886409 2.283248 44.552623 -17.557355 -28.203250 3.253389 33.053528 0.004202 -2.110204 2.050714 -0.040917 0.143978 -0.052091 -0.000000 0.000000 0.000000 0.000000 0.000000 0.000000 0.000000 
10.266822 16.407999 2.680280 135.951663 -84.938472 -127.951589 -12.477238 6.024188 2.198219 -3.019583 7.551630 3.475580 -0.761959 1.731907 29.332744 0.520378 1.389632 5.537242 0.196099 -0.000000 -90.796900 8.384445 -0.664609 4.620031 6.354598 0.545470 -42.928075 1.345091 -1.127427 22.793521 -0.850744 -6.033440 10.655558 -2.920700 -0.000000 -61.304600 4.889727 -7.594948 -8.999412 0.998306 -8.158151 -4.046228 -5.699880 -8.142712 2.196437 9.665579 -20.859672 -12.353322 -2.225062 -0.100088 -1.200038 0.000000 0.000000 0.000000 10.361746 5.077565 -0.281796 -15.958277 -40.863803 11.527544 178.248731 -66.624630 -179.945743 -3.870236 4.686116 -0.158175 0.350519 0.507465 0.000000 0.000000 0.000000 0.000000 0.000000 0.000000 0.000000 12.982064 -21.515593 2.278791 45.193185 -16.325887 -27.752610 3.294768 32.724695 0.004501 -2.242714 2.186309 -0.045925 0.139981 -0.045705 -0.000000 0.000000 0.000000 0.000000 0.000000 0.000000 0.000000 
10.127897 16.417835 2.638221 142.618348 -85.076938 -134.852055 -12.666867 6.159300 2.026891 -1.835141 8.652823 2.291874 -0.619692 1.953121 31.876004 0.577883 0.894388 7.478523 0.058001 -0.000000 -89.580500 8.332357 -0.595358 4.476241 7.086298 0.798389 -42.425576 1.299730 -1.173987 24.035934 -0.891196 -6.172790 9.744551 -2.859400 0.000000 -60.878100 5.477227 -7.510799 -8.715187 1.053024 -8.121561 -4.014253 -6.010569 -8.098184 2.130155 9.919036 -20.569297 -12.403925 -2.436458 -0.118347 -1.219640 0.000000 0.000000 0.000000 9.958351 4.584841 -0.100314 -18.416210 -38.702466 13.525008 178.505979 -66.379341 -179.948184 -3.896507 4.531585 -0.152577 0.327586 0.502726 0.000000 0.000000 0.000000 0.000000 0.000000 0.000000 0.000000 13.772087 -21.083387 2.286971 45.934614 -15.024182 -27.272486 3.332210 32.362990 0.004650 -2.357807 2.273863 -0.049936 0.135794 -0.040458 -0.000000 0.000000 0.000000 0.000000 0.000000 0.000000 0.000000 
9.994896 16.428321 2.595352 150.001896 -85.229504 -142.443590 -12.751724 6.268910 1.839536 -0.685349 9.684388 1.016611 -0.501997 2.176638 34.507798 0.667303 0.615089 9.245201 -0.066600 -0.000000 -87.161399 8.362562 -0.487582 4.334895 7.801703 1.030936 -41.846490 1.260154 -1.198123 25.104301 -0.942288 -6.338753 8.705947 -2.786699 0.000000 -60.437000 6.088943 -7.443471 -8.403865 1.112699 -8.102661 -3.987642 -6.304130 -8.073560 2.030257 10.186551 -20.241413 -12.433403 -2.644942 -0.136580 -1.233575 0.000000 0.000000 0.000000 9.617512 4.046519 0.059443 -20.942205 -36.311811 15.451899 178.761602 -66.366358 -179.951036 -3.877008 4.381412 -0.145521 0.302318 0.496654 0.000000 0.000000 0.000000 0.000000 0.000000 0.000000 0.000000 14.553378 -20.600206 2.304441 46.772574 -13.667163 -26.775735 3.363078 31.962353 0.004652 -2.463496 2.322901 -0.052950 0.131506 -0.036723 0.000000 0.000000 0.000000 0.000000 0.000000 0.000000 0.000000 
